<svg height="400" viewBox="0 0 800 400" width="800" xmlns="http://www.w3.org/2000/svg"><path d="m0 0h800v400h-800z" fill="#fff"/><path d="m56.2 60.9q-1.7 0-2.9-.7-1.2-.6-1.9-1.9-.6-1.3-.6-3 0-1.7.6-2.9.7-1.3 1.9-2 1.2-.7 2.8-.7 1 0 2 .3.9.4 1.6 1 .7.7 1.1 1.8.4 1 .4 2.4v.8h-9.2v-1.8h6.3q0-.7-.2-1.2-.3-.5-.8-.8-.5-.3-1.2-.3-.7 0-1.2.3-.5.4-.8.9-.3.5-.3 1.2v1.7q0 .9.3 1.4.3.6.8 1 .6.3 1.3.3.5 0 1-.2.4-.1.7-.4.3-.3.4-.7l2.8.2q-.2 1-.8 1.8-.7.7-1.7 1.1-1.1.4-2.4.4zm6.6-14.7h3.1v14.5h-3.1zm8.2 14.5h-3v-10.9h3zm-1.5-12.3q-.7 0-1.2-.4-.5-.5-.5-1.1 0-.7.5-1.1.5-.5 1.2-.5.7 0 1.1.5.5.4.5 1.1 0 .6-.5 1.1-.4.4-1.1.4zm12.7 4.5-2.8.2q-.1-.4-.3-.7-.3-.2-.6-.4-.4-.2-.9-.2-.7 0-1.2.3-.5.3-.5.8 0 .4.3.7.3.2 1.1.4l2 .4q1.5.3 2.3 1 .8.8.8 1.9 0 1.1-.6 1.9-.7.8-1.7 1.3-1.1.4-2.6.4-2.1 0-3.4-.9-1.3-.9-1.5-2.4l3-.2q.1.7.6 1 .5.4 1.4.4.8 0 1.2-.4.5-.3.5-.8 0-.4-.3-.6-.4-.3-1.1-.4l-1.9-.4q-1.6-.3-2.3-1.1-.8-.8-.8-2 0-1.1.6-1.8.5-.8 1.6-1.2 1-.4 2.4-.4 2.1 0 3.3.8 1.2.9 1.4 2.4zm4.9 8q-1 0-1.9-.3-.8-.4-1.2-1.1-.5-.7-.5-1.8 0-.9.3-1.6.4-.6.9-.9.6-.4 1.3-.6.8-.2 1.6-.3.9-.1 1.5-.2.6-.1.9-.2.2-.2.2-.6 0-.7-.4-1.1-.4-.3-1.2-.3-.8 0-1.3.3-.5.4-.6.9l-2.8-.2q.2-1 .8-1.7.6-.7 1.6-1.1 1-.4 2.3-.4.9 0 1.8.2.8.2 1.4.6.7.5 1.1 1.2.4.7.4 1.7v7.3h-2.9v-1.5h-.1q-.3.5-.7.9-.4.4-1.1.6-.6.2-1.4.2zm.9-2.1q.6 0 1.2-.2.5-.3.8-.7.2-.5.2-1.1v-1.1q-.1.1-.3.1-.3.1-.6.2-.3 0-.6.1-.3 0-.6.1-.5 0-.9.2-.4.2-.6.5-.2.2-.2.7 0 .6.4.9.5.3 1.2.3zm10.3 1.9h-3v-14.5h3.1v5.4h.1q.2-.4.5-.9.4-.4 1-.7.6-.3 1.6-.3 1.2 0 2.2.6 1 .6 1.6 1.9.6 1.2.6 3.1 0 1.8-.6 3.1-.6 1.2-1.6 1.9-1 .6-2.2.6-.9 0-1.5-.3-.7-.3-1-.7-.4-.5-.6-.9h-.2zm0-5.4q0 .9.3 1.7.2.7.8 1.1.5.4 1.2.4.7 0 1.2-.4.6-.4.8-1.2.3-.7.3-1.6 0-1-.3-1.7-.2-.7-.7-1.1-.6-.4-1.3-.4-.7 0-1.3.4-.5.4-.7 1.1-.3.7-.3 1.7zm14.3 5.6q-1.6 0-2.9-.7-1.2-.6-1.8-1.9-.7-1.3-.7-3 0-1.7.7-2.9.6-1.3 1.8-2 1.2-.7 2.8-.7 1.1 0 2 .3 1 .4 1.7 1 .7.7 1.1 1.8.3 1 .3 2.4v.8h-9.2v-1.8h6.4q0-.7-.3-1.2-.3-.5-.8-.8-.5-.3-1.1-.3-.7 0-1.2.3-.6.4-.9.9-.3.5-.3 1.2v1.7q0 .9.3 1.4.3.6.9 1 .5.3 1.3.3.5 0 .9-.2.4-.1.7-.4.3-.3.5-.7l2.8.2q-.2 1-.9 1.8-.6.7-1.7 1.1-1 .4-2.4.4zm5.9-11.1h6.6v2.3h-6.6zm1.5 8v-10.6h3.1v10.2q0 .4.1.6.1.2.3.3.3.1.6.1.2 0 .4 0 .2 0 .3-.1l.5 2.3q-.2.1-.6.2-.4 0-1 .1-1.1 0-2-.3-.8-.4-1.2-1.1-.5-.7-.5-1.7zm10-3.4v6.3h-3v-14.5h2.9v5.5h.1q.4-.9 1.2-1.5.9-.5 2.1-.5 1.1 0 2 .5.8.5 1.3 1.4.5.9.5 2.2v6.9h-3v-6.4q0-1-.6-1.6-.5-.5-1.4-.5-.6 0-1.1.2-.5.3-.7.8-.3.5-.3 1.2zm14.5 6.3h-3.2l-3-10.9h3.1l1.7 7.3h.1l1.7-7.3h3l1.8 7.3h.1l1.7-7.3h3l-2.9 10.9h-3.2l-1.9-6.8h-.1zm16 .2q-1.7 0-2.9-.7-1.2-.6-1.8-1.9-.7-1.3-.7-3 0-1.7.7-2.9.6-1.3 1.8-2 1.2-.7 2.8-.7 1.1 0 2 .3 1 .4 1.7 1 .7.7 1 1.8.4 1 .4 2.4v.8h-9.2v-1.8h6.4q0-.7-.3-1.2-.3-.5-.8-.8-.5-.3-1.1-.3-.7 0-1.3.3-.5.4-.8.9-.3.5-.3 1.2v1.7q0 .9.3 1.4.3.6.9 1 .5.3 1.3.3.5 0 .9-.2.4-.1.7-.4.3-.3.5-.7l2.8.2q-.2 1-.9 1.8-.7.7-1.7 1.1-1 .4-2.4.4zm9.7-.2h-3v-10.9h2.9v1.9h.1q.3-1 1-1.5.7-.5 1.7-.5.2 0 .4 0 .3 0 .5.1v2.6q-.2 0-.6-.1-.4 0-.7 0-.6 0-1.2.3-.5.3-.8.8-.3.5-.3 1.1zm7.9 4.1h-3.1v-15h3v1.8h.2q.2-.4.5-.9.4-.4 1-.7.7-.3 1.6-.3 1.2 0 2.2.6 1 .6 1.6 1.9.6 1.2.6 3.1 0 1.8-.6 3.1-.6 1.2-1.6 1.9-1 .6-2.2.6-.9 0-1.5-.3-.6-.3-1-.7-.4-.5-.6-.9h-.1zm-.1-9.5q0 .9.3 1.7.2.7.8 1.1.5.4 1.2.4.7 0 1.3-.4.5-.4.7-1.2.3-.7.3-1.6 0-1-.3-1.7-.2-.7-.7-1.1-.6-.4-1.3-.4-.7 0-1.2.4-.6.4-.8 1.1-.3.7-.3 1.7zm14.3 5.6q-1.6 0-2.8-.7-1.3-.6-1.9-1.9-.7-1.3-.7-3 0-1.7.7-2.9.6-1.3 1.8-2 1.2-.7 2.8-.7 1.1 0 2 .3 1 .4 1.7 1 .7.7 1.1 1.8.4 1 .4 2.4v.8h-9.3v-1.8h6.4q0-.7-.3-1.2-.3-.5-.8-.8-.5-.3-1.1-.3-.7 0-1.2.3-.6.4-.9.9-.3.5-.3 1.2v1.7q0 .9.3 1.4.3.6.9 1 .5.3 1.3.3.5 0 .9-.2.4-.1.7-.4.3-.3.5-.7l2.8.2q-.2 1-.9 1.8-.6.7-1.7 1.1-1 .4-2.4.4zm9.7-.2h-3v-10.9h2.9v1.9h.2q.3-1 1-1.5.7-.5 1.6-.5.2 0 .5 0 .2 0 .4.1v2.6q-.2 0-.6-.1-.3 0-.7 0-.6 0-1.1.3-.6.3-.9.8-.3.5-.3 1.1zm13.9-7.8-2.7.2q-.1-.4-.3-.7-.3-.2-.7-.4-.3-.2-.9-.2-.7 0-1.1.3-.5.3-.5.8 0 .4.3.7.3.2 1.1.4l1.9.4q1.6.3 2.4 1 .8.8.8 1.9 0 1.1-.6 1.9-.7.8-1.8 1.3-1.1.4-2.5.4-2.1 0-3.4-.9-1.3-.9-1.5-2.4l3-.2q.1.7.6 1 .5.4 1.3.4.8 0 1.3-.4.5-.3.5-.8 0-.4-.3-.6-.4-.3-1.1-.4l-1.9-.4q-1.6-.3-2.4-1.1-.7-.8-.7-2 0-1.1.5-1.8.6-.8 1.7-1.2 1-.4 2.4-.4 2.1 0 3.3.8 1.1.9 1.3 2.4zm3.6 8q-.7 0-1.2-.5-.5-.5-.5-1.2 0-.7.5-1.2.5-.5 1.2-.5.7 0 1.2.5.6.5.6 1.2 0 .5-.3.9-.2.3-.6.6-.4.2-.9.2zm8.8 0q-1.6 0-2.8-.7-1.2-.7-1.9-2-.6-1.2-.6-2.9 0-1.7.6-2.9.7-1.3 1.9-2 1.2-.7 2.8-.7 1.5 0 2.5.5 1.1.5 1.7 1.4.6 1 .7 2.2h-2.8q-.2-.8-.7-1.3-.5-.5-1.3-.5-.7 0-1.3.4-.5.4-.8 1.1-.3.7-.3 1.8 0 1 .3 1.7.3.8.8 1.2.6.3 1.3.3.5 0 .9-.2.4-.2.7-.6.3-.4.4-1h2.8q-.1 1.3-.7 2.2-.6 1-1.6 1.5-1.1.5-2.6.5zm11.5 0q-1.7 0-2.9-.7-1.2-.7-1.9-1.9-.6-1.3-.6-3 0-1.7.6-2.9.7-1.3 1.9-2 1.2-.7 2.9-.7 1.6 0 2.8.7 1.2.7 1.9 2 .6 1.2.6 2.9 0 1.7-.6 3-.7 1.2-1.9 1.9-1.2.7-2.8.7zm0-2.3q.7 0 1.2-.4.5-.5.8-1.2.3-.8.3-1.7 0-1-.3-1.7-.3-.8-.8-1.2-.5-.4-1.2-.4-.8 0-1.3.4-.5.4-.8 1.2-.2.7-.2 1.7 0 .9.2 1.7.3.7.8 1.2.5.4 1.3.4zm10 2.1h-3v-10.9h2.9v1.9h.1q.3-.9 1.1-1.5.8-.5 1.9-.5 1.2 0 2 .5.7.6 1 1.5h.1q.3-.9 1.2-1.5.9-.5 2.1-.5 1.5 0 2.5.9.9 1 .9 2.8v7.3h-3v-6.7q0-.9-.5-1.4-.4-.4-1.2-.4-.8 0-1.3.5-.4.5-.4 1.4v6.6h-2.9v-6.8q0-.8-.5-1.3-.5-.4-1.2-.4-.5 0-.9.2-.4.3-.7.7-.2.5-.2 1.1z"/><path d="m240 185.5h-19.6v-29.1h19.6v5.1h-13.5v6.9h12.5v5.1h-12.5v6.9h13.5zm4.5-29.1h6v29.1h-6zm16.6 29.1h-6.1v-21.8h6.1zm-3-24.7q-1.4 0-2.4-.9-.9-.9-.9-2.1 0-1.3.9-2.2 1-.9 2.4-.9 1.3 0 2.3.9.9.9.9 2.2 0 1.2-.9 2.1-1 .9-2.3.9zm25.6 9.1-5.5.3q-.2-.7-.6-1.3-.5-.5-1.2-.9-.8-.3-1.9-.3-1.4 0-2.3.6-1 .5-1 1.5 0 .8.6 1.3.7.6 2.2.9l3.9.8q3.2.7 4.8 2.1 1.5 1.5 1.5 3.8 0 2.2-1.2 3.8-1.3 1.6-3.5 2.5-2.1.9-5 .9-4.3 0-6.9-1.8-2.5-1.8-3-4.9l6-.4q.2 1.4 1.3 2.1 1 .6 2.6.6 1.6 0 2.6-.6 1-.6 1-1.6 0-.8-.7-1.3-.7-.6-2.1-.8l-3.8-.8q-3.2-.6-4.8-2.2-1.5-1.6-1.5-4 0-2.1 1.1-3.7 1.2-1.5 3.3-2.3 2-.8 4.8-.8 4.2 0 6.6 1.7 2.3 1.8 2.7 4.8zm10.3 16q-2.1 0-3.8-.7-1.6-.8-2.5-2.2-1-1.5-1-3.6 0-1.8.7-3.1.6-1.2 1.8-2 1.1-.7 2.6-1.1 1.5-.4 3.1-.5 1.9-.2 3.1-.4 1.1-.2 1.7-.5.5-.4.5-1.1v-.1q0-1.3-.9-2.1-.8-.7-2.4-.7-1.6 0-2.6.7-.9.7-1.2 1.8l-5.6-.5q.4-1.9 1.6-3.4 1.3-1.5 3.3-2.2 2-.8 4.6-.8 1.8 0 3.5.4 1.6.4 2.9 1.3 1.3.9 2.1 2.3.7 1.4.7 3.4v14.7h-5.7v-3.1h-.2q-.5 1.1-1.4 1.8-.9.8-2.1 1.3-1.2.4-2.8.4zm1.7-4.2q1.3 0 2.3-.5 1.1-.6 1.6-1.5.6-.9.6-2v-2.3q-.3.1-.7.3-.5.1-1.1.3-.7.1-1.3.2-.6.1-1.1.1-1 .2-1.8.5-.8.4-1.3 1-.4.5-.4 1.4 0 1.2.9 1.9.9.6 2.3.6zm21 3.8h-6v-29.1h6.1v10.9h.2q.4-.9 1.1-1.8.8-.9 2-1.5 1.2-.6 3.1-.6 2.4 0 4.4 1.2 2 1.3 3.2 3.8 1.2 2.4 1.2 6.2 0 3.6-1.2 6.2-1.1 2.5-3.1 3.7-2.1 1.3-4.5 1.3-1.8 0-3-.6-1.3-.5-2-1.4-.8-.9-1.2-1.8h-.3zm0-10.9q0 1.9.5 3.4.5 1.4 1.6 2.2 1 .8 2.4.8 1.5 0 2.5-.8 1.1-.8 1.6-2.3.5-1.4.5-3.3 0-1.9-.5-3.4-.5-1.4-1.5-2.2-1.1-.8-2.6-.8-1.4 0-2.4.8-1.1.7-1.6 2.2-.5 1.4-.5 3.4zm29 11.3q-3.4 0-5.8-1.4-2.5-1.3-3.8-3.9-1.3-2.5-1.3-5.9 0-3.4 1.3-5.9 1.3-2.6 3.7-4 2.4-1.4 5.6-1.4 2.2 0 4 .7 1.9.6 3.3 2 1.4 1.4 2.2 3.5.8 2.1.8 4.9v1.6h-18.5v-3.7h12.8q0-1.3-.6-2.4-.6-1-1.6-1.5-1-.6-2.3-.6-1.4 0-2.4.6-1.1.7-1.7 1.7-.6 1.1-.6 2.4v3.5q0 1.6.6 2.8.6 1.2 1.7 1.8 1.1.7 2.7.7 1 0 1.8-.3.8-.3 1.4-.9.6-.5.9-1.3l5.6.3q-.4 2-1.7 3.5-1.3 1.5-3.4 2.4-2 .8-4.7.8zm12.1-22.2h13.1v4.5h-13.1zm2.9 15.9v-21.2h6.1v20.4q0 .8.3 1.3.2.4.7.6.4.2 1 .2.5 0 .9-.1.4-.1.6-.1l1 4.5q-.5.1-1.3.3-.8.2-2 .3-2.2.1-3.8-.6-1.6-.7-2.6-2.1-.9-1.4-.9-3.5zm20.3-6.7v12.6h-6v-29.1h5.9v11.1h.2q.7-1.9 2.4-3 1.6-1.1 4.1-1.1 2.3 0 4 1 1.7.9 2.6 2.8 1 1.8 1 4.4v13.9h-6.1v-12.8q0-2.1-1-3.2-1-1.1-2.9-1.1-1.2 0-2.2.5-.9.6-1.4 1.6-.6 1-.6 2.4zm40.2 12.6h-6l-8.3-29.1h6.7l4.9 20.2h.2l5.3-20.2h5.8l5.3 20.2h.2l4.8-20.2h6.7l-8.3 29.1h-6l-5.5-19h-.2zm36.1.4q-3.4 0-5.8-1.4-2.4-1.3-3.7-3.9-1.3-2.5-1.3-5.9 0-3.4 1.3-5.9 1.3-2.6 3.6-4 2.4-1.4 5.6-1.4 2.2 0 4.1.7 1.8.6 3.2 2 1.4 1.4 2.2 3.5.8 2.1.8 4.9v1.6h-18.4v-3.7h12.7q0-1.3-.6-2.4-.5-1-1.5-1.5-1-.6-2.4-.6-1.3 0-2.4.6-1.1.7-1.7 1.7-.6 1.1-.6 2.4v3.5q0 1.6.6 2.8.6 1.2 1.8 1.8 1.1.7 2.6.7 1 0 1.8-.3.9-.3 1.5-.9.6-.5.9-1.3l5.6.3q-.5 2-1.8 3.5-1.3 1.5-3.4 2.4-2 .8-4.7.8zm19.7-.4h-6.1v-21.8h5.9v3.8h.2q.6-2.1 2-3.1 1.4-1.1 3.3-1.1.4 0 .9.1.6.1 1 .2v5.3q-.5-.1-1.2-.2-.8-.1-1.4-.1-1.3 0-2.4.6-1 .5-1.6 1.6-.6 1-.6 2.3zm16 8.2h-6v-30h5.9v3.6h.3q.4-.9 1.1-1.8.8-.9 2-1.5 1.3-.6 3.1-.6 2.4 0 4.4 1.2 2 1.3 3.2 3.8 1.2 2.4 1.2 6.2 0 3.6-1.1 6.2-1.2 2.5-3.2 3.7-2 1.3-4.5 1.3-1.8 0-3-.6-1.2-.5-2-1.4-.8-.9-1.2-1.8h-.2zm-.1-19.1q0 1.9.5 3.4.6 1.4 1.6 2.2 1 .8 2.5.8 1.4 0 2.5-.8 1-.8 1.5-2.3.6-1.4.6-3.3 0-1.9-.6-3.4-.5-1.4-1.5-2.2-1-.8-2.5-.8-1.5 0-2.5.8-1 .7-1.6 2.2-.5 1.4-.5 3.4zm29 11.3q-3.4 0-5.8-1.4-2.4-1.3-3.7-3.9-1.4-2.5-1.4-5.9 0-3.4 1.4-5.9 1.3-2.6 3.6-4 2.4-1.4 5.6-1.4 2.2 0 4.1.7 1.8.6 3.2 2 1.4 1.4 2.2 3.5.8 2.1.8 4.9v1.6h-18.4v-3.7h12.7q0-1.3-.6-2.4-.5-1-1.5-1.5-1-.6-2.4-.6-1.3 0-2.4.6-1.1.7-1.7 1.7-.6 1.1-.6 2.4v3.5q0 1.6.6 2.8.6 1.2 1.7 1.8 1.2.7 2.7.7 1 0 1.8-.3.9-.3 1.5-.9.6-.5.9-1.3l5.6.3q-.5 2-1.8 3.5-1.3 1.5-3.4 2.4-2 .8-4.7.8zm19.7-.4h-6.1v-21.8h5.9v3.8h.2q.6-2.1 2-3.1 1.4-1.1 3.3-1.1.4 0 .9.1.6.1 1 .2v5.3q-.5-.1-1.2-.2-.8-.1-1.4-.1-1.3 0-2.4.6-1 .5-1.6 1.6-.6 1-.6 2.3zm28.1-15.6-5.5.3q-.2-.7-.7-1.3-.4-.5-1.2-.9-.7-.3-1.8-.3-1.4 0-2.4.6-.9.5-.9 1.5 0 .8.6 1.3.6.6 2.1.9l4 .8q3.2.7 4.7 2.1 1.6 1.5 1.6 3.8 0 2.2-1.3 3.8-1.2 1.6-3.4 2.5-2.2.9-5 .9-4.4 0-6.9-1.8-2.6-1.8-3-4.9l5.9-.4q.3 1.4 1.3 2.1 1.1.6 2.7.6 1.6 0 2.6-.6.9-.6.9-1.6 0-.8-.7-1.3-.6-.6-2.1-.8l-3.7-.8q-3.2-.6-4.8-2.2-1.5-1.6-1.5-4 0-2.1 1.1-3.7 1.1-1.5 3.2-2.3 2.1-.8 4.9-.8 4.1 0 6.5 1.7 2.4 1.8 2.8 4.8zm-283.6 72.1h-6.1v-29.1h6.1v12.8h.4l10.5-12.8h7.4l-10.8 13 10.9 16.1h-7.4l-7.9-12-3.1 3.7zm33.7-9.3v-12.6h6v21.9h-5.8v-4h-.2q-.8 1.9-2.5 3.1-1.7 1.1-4.1 1.1-2.2 0-3.9-1-1.6-1-2.6-2.8-.9-1.8-.9-4.4v-13.9h6v12.8q0 2 1.1 3.1 1 1.1 2.7 1.1 1.1 0 2.1-.5.9-.5 1.5-1.5.6-1 .6-2.4zm16.6-3.4v12.7h-6.1v-21.9h5.8v3.9h.3q.7-1.9 2.4-3 1.7-1.2 4.1-1.2 2.3 0 4 1 1.7 1 2.6 2.9.9 1.8.9 4.4v13.9h-6v-12.9q0-2-1-3.1-1.1-1.1-2.9-1.1-1.2 0-2.1.5-1 .5-1.5 1.5-.5 1-.5 2.4zm36.6-2.9-5.5.3q-.1-.7-.6-1.3-.5-.6-1.2-.9-.8-.4-1.9-.4-1.4 0-2.3.6-1 .6-1 1.6 0 .8.6 1.3.7.6 2.2.9l3.9.8q3.2.6 4.8 2.1 1.5 1.4 1.5 3.8 0 2.1-1.2 3.8-1.3 1.6-3.5 2.5-2.1.9-5 .9-4.3 0-6.9-1.8-2.5-1.8-3-5l6-.3q.2 1.3 1.3 2 1 .7 2.6.7 1.6 0 2.6-.6 1-.6 1-1.6 0-.8-.7-1.4-.7-.5-2.1-.8l-3.8-.7q-3.2-.7-4.7-2.2-1.6-1.6-1.6-4.1 0-2.1 1.1-3.6 1.2-1.5 3.3-2.3 2-.9 4.8-.9 4.2 0 6.6 1.8 2.3 1.7 2.7 4.8zm2.5-6.3h13.1v4.6h-13.1zm3 15.9v-21.1h6v20.3q0 .9.3 1.3.2.5.7.7.5.2 1.1.2.4 0 .8-.1.5-.1.7-.1l.9 4.5q-.4.1-1.2.3-.9.2-2 .2-2.2.1-3.9-.5-1.6-.7-2.5-2.1-.9-1.4-.9-3.6zm20.3-6.7v12.7h-6.1v-29.1h5.9v11.1h.2q.8-1.9 2.4-3 1.7-1.2 4.2-1.2 2.2 0 3.9 1 1.7 1 2.7 2.9.9 1.8.9 4.4v13.9h-6v-12.9q0-2-1.1-3.1-1-1.1-2.8-1.1-1.3 0-2.2.5-1 .5-1.5 1.5-.5 1-.5 2.4zm24.8 13.1q-2.1 0-3.7-.8-1.7-.7-2.6-2.1-1-1.5-1-3.6 0-1.9.7-3.1.7-1.2 1.8-2 1.2-.7 2.6-1.1 1.5-.4 3.1-.6 1.9-.2 3.1-.3 1.2-.2 1.7-.6.5-.3.5-1v-.1q0-1.4-.8-2.1-.9-.7-2.4-.7-1.7 0-2.6.7-1 .7-1.3 1.8l-5.6-.5q.4-2 1.7-3.4 1.2-1.5 3.2-2.3 2-.8 4.6-.8 1.8 0 3.5.5 1.7.4 3 1.3 1.3.9 2 2.3.8 1.4.8 3.3v14.8h-5.8v-3.1h-.1q-.6 1-1.4 1.8-.9.8-2.2 1.2-1.2.5-2.8.5zm1.7-4.2q1.4 0 2.4-.5 1-.6 1.6-1.5.6-.9.6-2v-2.4q-.3.2-.8.4-.5.1-1.1.2-.6.2-1.2.3-.6 0-1.1.1-1.1.2-1.9.5-.8.4-1.2.9-.5.6-.5 1.5 0 1.2.9 1.8.9.7 2.3.7zm21-8.9v12.7h-6v-21.9h5.7v3.9h.3q.7-1.9 2.4-3 1.7-1.2 4.1-1.2 2.3 0 4 1 1.7 1 2.6 2.9 1 1.8 1 4.4v13.9h-6.1v-12.9q0-2-1-3.1-1-1.1-2.9-1.1-1.2 0-2.1.5-.9.5-1.5 1.5-.5 1-.5 2.4zm26.5 13q-2.4 0-4.5-1.3-2-1.3-3.1-3.8-1.2-2.5-1.2-6.1 0-3.8 1.2-6.3 1.2-2.5 3.2-3.7 2-1.3 4.4-1.3 1.9 0 3.1.7 1.2.6 2 1.5.7.9 1.1 1.8h.2v-10.9h6.1v29.1h-6v-3.5h-.3q-.4.9-1.2 1.8-.7.8-2 1.4-1.2.6-3 .6zm2-4.8q1.4 0 2.4-.8 1.1-.8 1.6-2.3.5-1.4.5-3.4 0-1.9-.5-3.3-.5-1.5-1.6-2.3-1-.7-2.4-.7-1.5 0-2.6.8-1 .8-1.5 2.2-.5 1.5-.5 3.3 0 1.9.5 3.4.5 1.5 1.6 2.3 1 .8 2.5.8zm25 4.9q-3.3 0-5.7-1.4-2.5-1.4-3.8-3.9-1.3-2.5-1.3-6 0-3.3 1.3-5.9 1.3-2.5 3.7-3.9 2.4-1.5 5.6-1.5 2.2 0 4 .7 1.9.7 3.3 2.1 1.4 1.4 2.2 3.5.8 2 .8 4.8v1.7h-18.5v-3.8h12.8q0-1.3-.6-2.3-.6-1-1.6-1.6-1-.5-2.3-.5-1.4 0-2.4.6-1.1.6-1.7 1.7-.6 1-.6 2.3v3.6q0 1.6.6 2.8.6 1.2 1.7 1.8 1.1.7 2.6.7 1 0 1.9-.3.8-.3 1.4-.9.6-.5.9-1.4l5.6.4q-.4 2-1.7 3.5-1.3 1.5-3.4 2.3-2.1.9-4.8.9zm13.7-29.5h6v29.1h-6z"/></svg>